# xmcd
#
# Track frame offsets: 
#        150
#        20914
#        42835
#        67626
#        88836
#        116204
#        143321
#        179620
#        201513
#        223657
#        250454
#
# Disc length: 3914 seconds
#
# Revision: 0
# Processed by: cddbd v1.5.2PL0 Copyright (c) Steve Scherf et al.
# Submitted via: ExactAudioCopy v1.0b3
#
DISCID=a50f480b
DTITLE=Blindside Blues Band - Generator
DYEAR=2012
DGENRE=Rock
TTITLE0=Gravy Train
TTITLE1=Generator
TTITLE2=Power of the Blues
TTITLE3=Bluesin'
TTITLE4=Goin 'Crosstown
TTITLE5=Lovin You
TTITLE6=Genevieve
TTITLE7=Slow Down
TTITLE8=Gonna Leave This Town
TTITLE9=Wandering Man
TTITLE10=Bonus Jam
EXTD=
EXTT0=
EXTT1=
EXTT2=
EXTT3=
EXTT4=
EXTT5=
EXTT6=
EXTT7=
EXTT8=
EXTT9=
EXTT10=
PLAYORDER=
